<?xml version="1.0" encoding="iso-8859-1"?>
<!-- Generator: Adobe Illustrator 19.0.0, SVG Export Plug-In . SVG Version: 6.00 Build 0)  -->
<svg version="1.1" id="Layer_1" xmlns="http://www.w3.org/2000/svg" xmlns:xlink="http://www.w3.org/1999/xlink" x="0px" y="0px"
	 viewBox="0 0 460 460" style="enable-background:new 0 0 460 460;" xml:space="preserve">
<g>
	<path style="fill:#366796;" d="M230,0C102.974,0,0,102.974,0,230c0,100.254,64.144,185.527,153.63,217.017L459.991,227.94
		C458.885,101.863,356.338,0,230,0z"/>
	<path style="fill:#273B7A;" d="M459.974,227.94l-42.828-42.828l-24.126,5.874l-4.158-34.158L281.165,49.13l-33.913,5.635
		l-8.323,122.986L87.789,381.154L153.635,447c23.896,8.409,49.593,13,76.365,13c127.025,0,230-102.975,230-230
		C460,229.311,459.98,228.627,459.974,227.94z"/>
	
		<rect x="119.242" y="208.667" transform="matrix(-0.7071 -0.7071 0.7071 -0.7071 24.564 613.0203)" style="fill:#FEE187;" width="40.001" height="185.511"/>
	
		<rect x="181.896" y="208.761" transform="matrix(-0.7071 -0.7071 0.7071 -0.7071 199.9722 540.3522)" style="fill:#FF6161;" width="60" height="40"/>
	<polygon style="fill:#FF6161;" points="391.693,182.29 292.698,281.285 264.414,253.001 299.769,189.362 363.409,154.006 	"/>
	<polygon style="fill:#FFAD9E;" points="283.994,74.591 248.639,138.231 184.999,173.586 156.715,145.302 255.71,46.307 	"/>
	<polygon style="fill:#FEE187;" points="363.409,154.006 264.414,253.001 224.71,213.297 252.994,142.586 323.705,114.302 	"/>
	
		<rect x="184.35" y="115.865" transform="matrix(-0.7071 0.7071 -0.7071 -0.7071 535.9856 65.8771)" style="fill:#FFFFFF;" width="139.999" height="56.159"/>
	
		<rect x="322.196" y="145.781" transform="matrix(-0.7071 -0.7071 0.7071 -0.7071 420.2706 637.6421)" style="fill:#FF0F27;" width="40" height="171.998"/>
	
		<rect x="186.21" y="9.798" transform="matrix(-0.7071 -0.7071 0.7071 -0.7071 284.2834 309.3492)" style="fill:#FF6161;" width="40" height="171.998"/>
	<path style="fill:#FF6161;" d="M370.023,356.737v15.367h-94.5l20-45.367h44.5C356.523,326.737,370.023,340.237,370.023,356.737z"/>
	<path style="fill:#FFAD9E;" d="M295.523,326.737v45.367h-74.5v-15.367c0-16.5,13.5-30,30-30H295.523z"/>
	<polygon style="fill:#FF0F27;" points="377.023,355.787 377.023,381.154 295.523,381.154 275.523,371.154 295.523,355.787 	"/>
	<rect x="214.023" y="355.787" style="fill:#FF6161;" width="81.5" height="25.367"/>
</g>
<g>
</g>
<g>
</g>
<g>
</g>
<g>
</g>
<g>
</g>
<g>
</g>
<g>
</g>
<g>
</g>
<g>
</g>
<g>
</g>
<g>
</g>
<g>
</g>
<g>
</g>
<g>
</g>
<g>
</g>
</svg>
